<?xml version="1.0" encoding="UTF-8"?>
<svg xmlns="http://www.w3.org/2000/svg" width="331.6mm" height="819mm" viewBox="0 0 331.6 819">
  <desc>Generated by cardboxgen</desc>
  <style>
    .cut { fill: none; stroke: #ff0000; stroke-width: 0.2; }
    .score { fill: none; stroke: #0000ff; stroke-width: 0.2; stroke-dasharray: 2 2; }
    .engrave { fill: none; stroke: #000000; stroke-width: 0.2; }
    .text { fill: #000000; font-family: Arial, sans-serif; font-size: 4px; }
  </style>
  <!-- params: {"variant": "A", "preset": "box_with_lid", "inner_width": 135, "inner_depth": 90, "inner_height": 225, "thickness": 3,
"kerf_mm": 0.2, "clearance_mm": 0.15, "finger_width": null, "min_fingers": 3, "finger_count_outer": null,
"finger_count_vertical": null, "lid": true, "lid_height": 30, "lid_clearance": 0.4, "front_height": null, "scoop":
false, "scoop_radius": 22.0, "scoop_depth": 18.0, "slot_width": 80.0, "slot_height": 18.0, "slot_y_from_bottom": 35.0,
"window_margin": 18.0, "window_corner_r": 6.0, "thumb_notch_radius": 10.0, "thumb_notch_depth": 8.0, "labels": true,
"sheet_width": 340, "export": "single_svg", "offset_kerf": false} -->
  <g id="CUT" class="cut">
    <g id="BOTTOM" transform="translate(0,0)">
      <path d="M 0 0 L 0 -3 L 9.517 -3 L 9.517 0 L 9.517 3 L 18.783 3 L 18.783 0 L 18.783 -3 L 28.3 -3 L 28.3 0 L 28.3 3 L 37.567 3 L 37.567 0 L 37.567 -3 L 47.083 -3 L 47.083 0 L 47.083 3 L 56.35 3 L 56.35 0 L 56.35 -3 L 65.867 -3 L 65.867 0 L 65.867 3 L 75.133 3 L 75.133 0 L 75.133 -3 L 84.65 -3 L 84.65 0 L 84.65 3 L 93.917 3 L 93.917 0 L 93.917 -3 L 103.433 -3 L 103.433 0 L 103.433 3 L 112.7 3 L 112.7 0 L 112.7 -3 L 122.217 -3 L 122.217 0 L 122.217 3 L 131.483 3 L 131.483 0 L 131.483 -3 L 141 -3 L 141 0 L 144 0 L 144 10.778 L 141 10.778 L 138 10.778 L 138 21.306 L 141 21.306 L 144 21.306 L 144 32.083 L 141 32.083 L 138 32.083 L 138 42.611 L 141 42.611 L 144 42.611 L 144 53.389 L 141 53.389 L 138 53.389 L 138 63.917 L 141 63.917 L 144 63.917 L 144 74.694 L 141 74.694 L 138 74.694 L 138 85.222 L 141 85.222 L 144 85.222 L 144 96 L 141 96 L 141 99 L 131.483 99 L 131.483 96 L 131.483 93 L 122.217 93 L 122.217 96 L 122.217 99 L 112.7 99 L 112.7 96 L 112.7 93 L 103.433 93 L 103.433 96 L 103.433 99 L 93.917 99 L 93.917 96 L 93.917 93 L 84.65 93 L 84.65 96 L 84.65 99 L 75.133 99 L 75.133 96 L 75.133 93 L 65.867 93 L 65.867 96 L 65.867 99 L 56.35 99 L 56.35 96 L 56.35 93 L 47.083 93 L 47.083 96 L 47.083 99 L 37.567 99 L 37.567 96 L 37.567 93 L 28.3 93 L 28.3 96 L 28.3 99 L 18.783 99 L 18.783 96 L 18.783 93 L 9.517 93 L 9.517 96 L 9.517 99 L 0 99 L 0 96 L -3 96 L -3 85.222 L 0 85.222 L 3 85.222 L 3 74.694 L 0 74.694 L -3 74.694 L -3 63.917 L 0 63.917 L 3 63.917 L 3 53.389 L 0 53.389 L -3 53.389 L -3 42.611 L 0 42.611 L 3 42.611 L 3 32.083 L 0 32.083 L -3 32.083 L -3 21.306 L 0 21.306 L 3 21.306 L 3 10.778 L 0 10.778 L -3 10.778 L -3 -0 L 0 -0 Z"/>
    </g>
    <g id="BACK" transform="translate(159,0)">
      <path d="M 0 0 L 141 0 L 144 0 L 144 10.033 L 141 10.033 L 138 10.033 L 138 19.815 L 141 19.815 L 144 19.815 L 144 29.848 L 141 29.848 L 138 29.848 L 138 39.63 L 141 39.63 L 144 39.63 L 144 49.663 L 141 49.663 L 138 49.663 L 138 59.446 L 141 59.446 L 144 59.446 L 144 69.478 L 141 69.478 L 138 69.478 L 138 79.261 L 141 79.261 L 144 79.261 L 144 89.293 L 141 89.293 L 138 89.293 L 138 99.076 L 141 99.076 L 144 99.076 L 144 109.109 L 141 109.109 L 138 109.109 L 138 118.891 L 141 118.891 L 144 118.891 L 144 128.924 L 141 128.924 L 138 128.924 L 138 138.707 L 141 138.707 L 144 138.707 L 144 148.739 L 141 148.739 L 138 148.739 L 138 158.522 L 141 158.522 L 144 158.522 L 144 168.554 L 141 168.554 L 138 168.554 L 138 178.337 L 141 178.337 L 144 178.337 L 144 188.37 L 141 188.37 L 138 188.37 L 138 198.152 L 141 198.152 L 144 198.152 L 144 208.185 L 141 208.185 L 138 208.185 L 138 217.967 L 141 217.967 L 144 217.967 L 144 228 L 141 228 L 141 225 L 131.483 225 L 131.483 228 L 131.483 231 L 122.217 231 L 122.217 228 L 122.217 225 L 112.7 225 L 112.7 228 L 112.7 231 L 103.433 231 L 103.433 228 L 103.433 225 L 93.917 225 L 93.917 228 L 93.917 231 L 84.65 231 L 84.65 228 L 84.65 225 L 75.133 225 L 75.133 228 L 75.133 231 L 65.867 231 L 65.867 228 L 65.867 225 L 56.35 225 L 56.35 228 L 56.35 231 L 47.083 231 L 47.083 228 L 47.083 225 L 37.567 225 L 37.567 228 L 37.567 231 L 28.3 231 L 28.3 228 L 28.3 225 L 18.783 225 L 18.783 228 L 18.783 231 L 9.517 231 L 9.517 228 L 9.517 225 L 0 225 L 0 228 L -3 228 L -3 217.967 L 0 217.967 L 3 217.967 L 3 208.185 L 0 208.185 L -3 208.185 L -3 198.152 L 0 198.152 L 3 198.152 L 3 188.37 L 0 188.37 L -3 188.37 L -3 178.337 L 0 178.337 L 3 178.337 L 3 168.554 L 0 168.554 L -3 168.554 L -3 158.522 L 0 158.522 L 3 158.522 L 3 148.739 L 0 148.739 L -3 148.739 L -3 138.707 L 0 138.707 L 3 138.707 L 3 128.924 L 0 128.924 L -3 128.924 L -3 118.891 L 0 118.891 L 3 118.891 L 3 109.109 L 0 109.109 L -3 109.109 L -3 99.076 L 0 99.076 L 3 99.076 L 3 89.293 L 0 89.293 L -3 89.293 L -3 79.261 L 0 79.261 L 3 79.261 L 3 69.478 L 0 69.478 L -3 69.478 L -3 59.446 L 0 59.446 L 3 59.446 L 3 49.663 L 0 49.663 L -3 49.663 L -3 39.63 L 0 39.63 L 3 39.63 L 3 29.848 L 0 29.848 L -3 29.848 L -3 19.815 L 0 19.815 L 3 19.815 L 3 10.033 L 0 10.033 L -3 10.033 L -3 -0 L 0 -0 Z"/>
    </g>
    <g id="LEFT" transform="translate(0,243)">
      <path d="M 0 0 L 96 0 L 93 0 L 93 10.033 L 96 10.033 L 99 10.033 L 99 19.815 L 96 19.815 L 93 19.815 L 93 29.848 L 96 29.848 L 99 29.848 L 99 39.63 L 96 39.63 L 93 39.63 L 93 49.663 L 96 49.663 L 99 49.663 L 99 59.446 L 96 59.446 L 93 59.446 L 93 69.478 L 96 69.478 L 99 69.478 L 99 79.261 L 96 79.261 L 93 79.261 L 93 89.293 L 96 89.293 L 99 89.293 L 99 99.076 L 96 99.076 L 93 99.076 L 93 109.109 L 96 109.109 L 99 109.109 L 99 118.891 L 96 118.891 L 93 118.891 L 93 128.924 L 96 128.924 L 99 128.924 L 99 138.707 L 96 138.707 L 93 138.707 L 93 148.739 L 96 148.739 L 99 148.739 L 99 158.522 L 96 158.522 L 93 158.522 L 93 168.554 L 96 168.554 L 99 168.554 L 99 178.337 L 96 178.337 L 93 178.337 L 93 188.37 L 96 188.37 L 99 188.37 L 99 198.152 L 96 198.152 L 93 198.152 L 93 208.185 L 96 208.185 L 99 208.185 L 99 217.967 L 96 217.967 L 93 217.967 L 93 228 L 96 228 L 96 225 L 85.222 225 L 85.222 228 L 85.222 231 L 74.694 231 L 74.694 228 L 74.694 225 L 63.917 225 L 63.917 228 L 63.917 231 L 53.389 231 L 53.389 228 L 53.389 225 L 42.611 225 L 42.611 228 L 42.611 231 L 32.083 231 L 32.083 228 L 32.083 225 L 21.306 225 L 21.306 228 L 21.306 231 L 10.778 231 L 10.778 228 L 10.778 225 L -0 225 L -0 228 L 3 228 L 3 217.967 L 0 217.967 L -3 217.967 L -3 208.185 L 0 208.185 L 3 208.185 L 3 198.152 L 0 198.152 L -3 198.152 L -3 188.37 L 0 188.37 L 3 188.37 L 3 178.337 L 0 178.337 L -3 178.337 L -3 168.554 L 0 168.554 L 3 168.554 L 3 158.522 L 0 158.522 L -3 158.522 L -3 148.739 L 0 148.739 L 3 148.739 L 3 138.707 L 0 138.707 L -3 138.707 L -3 128.924 L 0 128.924 L 3 128.924 L 3 118.891 L 0 118.891 L -3 118.891 L -3 109.109 L 0 109.109 L 3 109.109 L 3 99.076 L 0 99.076 L -3 99.076 L -3 89.293 L 0 89.293 L 3 89.293 L 3 79.261 L 0 79.261 L -3 79.261 L -3 69.478 L 0 69.478 L 3 69.478 L 3 59.446 L 0 59.446 L -3 59.446 L -3 49.663 L 0 49.663 L 3 49.663 L 3 39.63 L 0 39.63 L -3 39.63 L -3 29.848 L 0 29.848 L 3 29.848 L 3 19.815 L 0 19.815 L -3 19.815 L -3 10.033 L 0 10.033 L 3 10.033 L 3 -0 L 0 -0 Z"/>
    </g>
    <g id="RIGHT" transform="translate(114,243)">
      <path d="M 0 0 L 96 0 L 93 0 L 93 10.033 L 96 10.033 L 99 10.033 L 99 19.815 L 96 19.815 L 93 19.815 L 93 29.848 L 96 29.848 L 99 29.848 L 99 39.63 L 96 39.63 L 93 39.63 L 93 49.663 L 96 49.663 L 99 49.663 L 99 59.446 L 96 59.446 L 93 59.446 L 93 69.478 L 96 69.478 L 99 69.478 L 99 79.261 L 96 79.261 L 93 79.261 L 93 89.293 L 96 89.293 L 99 89.293 L 99 99.076 L 96 99.076 L 93 99.076 L 93 109.109 L 96 109.109 L 99 109.109 L 99 118.891 L 96 118.891 L 93 118.891 L 93 128.924 L 96 128.924 L 99 128.924 L 99 138.707 L 96 138.707 L 93 138.707 L 93 148.739 L 96 148.739 L 99 148.739 L 99 158.522 L 96 158.522 L 93 158.522 L 93 168.554 L 96 168.554 L 99 168.554 L 99 178.337 L 96 178.337 L 93 178.337 L 93 188.37 L 96 188.37 L 99 188.37 L 99 198.152 L 96 198.152 L 93 198.152 L 93 208.185 L 96 208.185 L 99 208.185 L 99 217.967 L 96 217.967 L 93 217.967 L 93 228 L 96 228 L 96 225 L 85.222 225 L 85.222 228 L 85.222 231 L 74.694 231 L 74.694 228 L 74.694 225 L 63.917 225 L 63.917 228 L 63.917 231 L 53.389 231 L 53.389 228 L 53.389 225 L 42.611 225 L 42.611 228 L 42.611 231 L 32.083 231 L 32.083 228 L 32.083 225 L 21.306 225 L 21.306 228 L 21.306 231 L 10.778 231 L 10.778 228 L 10.778 225 L -0 225 L -0 228 L 3 228 L 3 217.967 L 0 217.967 L -3 217.967 L -3 208.185 L 0 208.185 L 3 208.185 L 3 198.152 L 0 198.152 L -3 198.152 L -3 188.37 L 0 188.37 L 3 188.37 L 3 178.337 L 0 178.337 L -3 178.337 L -3 168.554 L 0 168.554 L 3 168.554 L 3 158.522 L 0 158.522 L -3 158.522 L -3 148.739 L 0 148.739 L 3 148.739 L 3 138.707 L 0 138.707 L -3 138.707 L -3 128.924 L 0 128.924 L 3 128.924 L 3 118.891 L 0 118.891 L -3 118.891 L -3 109.109 L 0 109.109 L 3 109.109 L 3 99.076 L 0 99.076 L -3 99.076 L -3 89.293 L 0 89.293 L 3 89.293 L 3 79.261 L 0 79.261 L -3 79.261 L -3 69.478 L 0 69.478 L 3 69.478 L 3 59.446 L 0 59.446 L -3 59.446 L -3 49.663 L 0 49.663 L 3 49.663 L 3 39.63 L 0 39.63 L -3 39.63 L -3 29.848 L 0 29.848 L 3 29.848 L 3 19.815 L 0 19.815 L -3 19.815 L -3 10.033 L 0 10.033 L 3 10.033 L 3 -0 L 0 -0 Z"/>
    </g>
    <g id="FRONT" transform="translate(0,486)">
      <path d="M 0 0 L 141 0 L 144 0 L 144 10.033 L 141 10.033 L 138 10.033 L 138 19.815 L 141 19.815 L 144 19.815 L 144 29.848 L 141 29.848 L 138 29.848 L 138 39.63 L 141 39.63 L 144 39.63 L 144 49.663 L 141 49.663 L 138 49.663 L 138 59.446 L 141 59.446 L 144 59.446 L 144 69.478 L 141 69.478 L 138 69.478 L 138 79.261 L 141 79.261 L 144 79.261 L 144 89.293 L 141 89.293 L 138 89.293 L 138 99.076 L 141 99.076 L 144 99.076 L 144 109.109 L 141 109.109 L 138 109.109 L 138 118.891 L 141 118.891 L 144 118.891 L 144 128.924 L 141 128.924 L 138 128.924 L 138 138.707 L 141 138.707 L 144 138.707 L 144 148.739 L 141 148.739 L 138 148.739 L 138 158.522 L 141 158.522 L 144 158.522 L 144 168.554 L 141 168.554 L 138 168.554 L 138 178.337 L 141 178.337 L 144 178.337 L 144 188.37 L 141 188.37 L 138 188.37 L 138 198.152 L 141 198.152 L 144 198.152 L 144 208.185 L 141 208.185 L 138 208.185 L 138 217.967 L 141 217.967 L 144 217.967 L 144 228 L 141 228 L 141 225 L 131.483 225 L 131.483 228 L 131.483 231 L 122.217 231 L 122.217 228 L 122.217 225 L 112.7 225 L 112.7 228 L 112.7 231 L 103.433 231 L 103.433 228 L 103.433 225 L 93.917 225 L 93.917 228 L 93.917 231 L 84.65 231 L 84.65 228 L 84.65 225 L 75.133 225 L 75.133 228 L 75.133 231 L 65.867 231 L 65.867 228 L 65.867 225 L 56.35 225 L 56.35 228 L 56.35 231 L 47.083 231 L 47.083 228 L 47.083 225 L 37.567 225 L 37.567 228 L 37.567 231 L 28.3 231 L 28.3 228 L 28.3 225 L 18.783 225 L 18.783 228 L 18.783 231 L 9.517 231 L 9.517 228 L 9.517 225 L 0 225 L 0 228 L -3 228 L -3 217.967 L 0 217.967 L 3 217.967 L 3 208.185 L 0 208.185 L -3 208.185 L -3 198.152 L 0 198.152 L 3 198.152 L 3 188.37 L 0 188.37 L -3 188.37 L -3 178.337 L 0 178.337 L 3 178.337 L 3 168.554 L 0 168.554 L -3 168.554 L -3 158.522 L 0 158.522 L 3 158.522 L 3 148.739 L 0 148.739 L -3 148.739 L -3 138.707 L 0 138.707 L 3 138.707 L 3 128.924 L 0 128.924 L -3 128.924 L -3 118.891 L 0 118.891 L 3 118.891 L 3 109.109 L 0 109.109 L -3 109.109 L -3 99.076 L 0 99.076 L 3 99.076 L 3 89.293 L 0 89.293 L -3 89.293 L -3 79.261 L 0 79.261 L 3 79.261 L 3 69.478 L 0 69.478 L -3 69.478 L -3 59.446 L 0 59.446 L 3 59.446 L 3 49.663 L 0 49.663 L -3 49.663 L -3 39.63 L 0 39.63 L 3 39.63 L 3 29.848 L 0 29.848 L -3 29.848 L -3 19.815 L 0 19.815 L 3 19.815 L 3 10.033 L 0 10.033 L -3 10.033 L -3 -0 L 0 -0 Z"/>
    </g>
    <g id="LID_TOP" transform="translate(159,486)">
      <path d="M 0 0 L 0 -3 L 9.57 -3 L 9.57 0 L 9.57 3 L 18.89 3 L 18.89 0 L 18.89 -3 L 28.46 -3 L 28.46 0 L 28.46 3 L 37.78 3 L 37.78 0 L 37.78 -3 L 47.35 -3 L 47.35 0 L 47.35 3 L 56.67 3 L 56.67 0 L 56.67 -3 L 66.24 -3 L 66.24 0 L 66.24 3 L 75.56 3 L 75.56 0 L 75.56 -3 L 85.13 -3 L 85.13 0 L 85.13 3 L 94.45 3 L 94.45 0 L 94.45 -3 L 104.02 -3 L 104.02 0 L 104.02 3 L 113.34 3 L 113.34 0 L 113.34 -3 L 122.91 -3 L 122.91 0 L 122.91 3 L 132.23 3 L 132.23 0 L 132.23 -3 L 141.8 -3 L 141.8 0 L 144.8 0 L 144.8 10.867 L 141.8 10.867 L 138.8 10.867 L 138.8 21.483 L 141.8 21.483 L 144.8 21.483 L 144.8 32.35 L 141.8 32.35 L 138.8 32.35 L 138.8 42.967 L 141.8 42.967 L 144.8 42.967 L 144.8 53.833 L 141.8 53.833 L 138.8 53.833 L 138.8 64.45 L 141.8 64.45 L 144.8 64.45 L 144.8 75.317 L 141.8 75.317 L 138.8 75.317 L 138.8 85.933 L 141.8 85.933 L 144.8 85.933 L 144.8 96.8 L 141.8 96.8 L 141.8 99.8 L 132.23 99.8 L 132.23 96.8 L 132.23 93.8 L 122.91 93.8 L 122.91 96.8 L 122.91 99.8 L 113.34 99.8 L 113.34 96.8 L 113.34 93.8 L 104.02 93.8 L 104.02 96.8 L 104.02 99.8 L 94.45 99.8 L 94.45 96.8 L 94.45 93.8 L 85.13 93.8 L 85.13 96.8 L 85.13 99.8 L 75.56 99.8 L 75.56 96.8 L 75.56 93.8 L 66.24 93.8 L 66.24 96.8 L 66.24 99.8 L 56.67 99.8 L 56.67 96.8 L 56.67 93.8 L 47.35 93.8 L 47.35 96.8 L 47.35 99.8 L 37.78 99.8 L 37.78 96.8 L 37.78 93.8 L 28.46 93.8 L 28.46 96.8 L 28.46 99.8 L 18.89 99.8 L 18.89 96.8 L 18.89 93.8 L 9.57 93.8 L 9.57 96.8 L 9.57 99.8 L 0 99.8 L 0 96.8 L -3 96.8 L -3 85.933 L 0 85.933 L 3 85.933 L 3 75.317 L 0 75.317 L -3 75.317 L -3 64.45 L 0 64.45 L 3 64.45 L 3 53.833 L 0 53.833 L -3 53.833 L -3 42.967 L 0 42.967 L 3 42.967 L 3 32.35 L 0 32.35 L -3 32.35 L -3 21.483 L 0 21.483 L 3 21.483 L 3 10.867 L 0 10.867 L -3 10.867 L -3 0 L 0 0 Z"/>
    </g>
    <g id="LID_BACK" transform="translate(0,729)">
      <path d="M 0 0 L 141.8 0 L 144.8 0 L 144.8 10.083 L 141.8 10.083 L 138.8 10.083 L 138.8 19.917 L 141.8 19.917 L 144.8 19.917 L 144.8 30 L 141.8 30 L 141.8 27 L 132.23 27 L 132.23 30 L 132.23 33 L 122.91 33 L 122.91 30 L 122.91 27 L 113.34 27 L 113.34 30 L 113.34 33 L 104.02 33 L 104.02 30 L 104.02 27 L 94.45 27 L 94.45 30 L 94.45 33 L 85.13 33 L 85.13 30 L 85.13 27 L 75.56 27 L 75.56 30 L 75.56 33 L 66.24 33 L 66.24 30 L 66.24 27 L 56.67 27 L 56.67 30 L 56.67 33 L 47.35 33 L 47.35 30 L 47.35 27 L 37.78 27 L 37.78 30 L 37.78 33 L 28.46 33 L 28.46 30 L 28.46 27 L 18.89 27 L 18.89 30 L 18.89 33 L 9.57 33 L 9.57 30 L 9.57 27 L 0 27 L 0 30 L -3 30 L -3 19.917 L 0 19.917 L 3 19.917 L 3 10.083 L 0 10.083 L -3 10.083 L -3 -0 L 0 -0 Z"/>
    </g>
    <g id="LID_FRONT" transform="translate(159.8,729)">
      <path d="M 0 0 L 141.8 0 L 144.8 0 L 144.8 10.083 L 141.8 10.083 L 138.8 10.083 L 138.8 19.917 L 141.8 19.917 L 144.8 19.917 L 144.8 30 L 141.8 30 L 141.8 27 L 132.23 27 L 132.23 30 L 132.23 33 L 122.91 33 L 122.91 30 L 122.91 27 L 113.34 27 L 113.34 30 L 113.34 33 L 104.02 33 L 104.02 30 L 104.02 27 L 94.45 27 L 94.45 30 L 94.45 33 L 85.13 33 L 85.13 30 L 85.13 27 L 75.56 27 L 75.56 30 L 75.56 33 L 66.24 33 L 66.24 30 L 66.24 27 L 56.67 27 L 56.67 30 L 56.67 33 L 47.35 33 L 47.35 30 L 47.35 27 L 37.78 27 L 37.78 30 L 37.78 33 L 28.46 33 L 28.46 30 L 28.46 27 L 18.89 27 L 18.89 30 L 18.89 33 L 9.57 33 L 9.57 30 L 9.57 27 L 0 27 L 0 30 L -3 30 L -3 19.917 L 0 19.917 L 3 19.917 L 3 10.083 L 0 10.083 L -3 10.083 L -3 -0 L 0 -0 Z"/>
      <path d="M 60.9 0 L 60.9 8 A 10 10 0 0 0 80.9 8 L 80.9 0 Z"/>
    </g>
    <g id="LID_LEFT" transform="translate(0,774)">
      <path d="M 0 0 L 96.8 0 L 93.8 0 L 93.8 10.083 L 96.8 10.083 L 99.8 10.083 L 99.8 19.917 L 96.8 19.917 L 93.8 19.917 L 93.8 30 L 96.8 30 L 96.8 27 L 85.933 27 L 85.933 30 L 85.933 33 L 75.317 33 L 75.317 30 L 75.317 27 L 64.45 27 L 64.45 30 L 64.45 33 L 53.833 33 L 53.833 30 L 53.833 27 L 42.967 27 L 42.967 30 L 42.967 33 L 32.35 33 L 32.35 30 L 32.35 27 L 21.483 27 L 21.483 30 L 21.483 33 L 10.867 33 L 10.867 30 L 10.867 27 L 0 27 L 0 30 L 3 30 L 3 19.917 L 0 19.917 L -3 19.917 L -3 10.083 L 0 10.083 L 3 10.083 L 3 -0 L 0 -0 Z"/>
    </g>
    <g id="LID_RIGHT" transform="translate(114.8,774)">
      <path d="M 0 0 L 96.8 0 L 93.8 0 L 93.8 10.083 L 96.8 10.083 L 99.8 10.083 L 99.8 19.917 L 96.8 19.917 L 93.8 19.917 L 93.8 30 L 96.8 30 L 96.8 27 L 85.933 27 L 85.933 30 L 85.933 33 L 75.317 33 L 75.317 30 L 75.317 27 L 64.45 27 L 64.45 30 L 64.45 33 L 53.833 33 L 53.833 30 L 53.833 27 L 42.967 27 L 42.967 30 L 42.967 33 L 32.35 33 L 32.35 30 L 32.35 27 L 21.483 27 L 21.483 30 L 21.483 33 L 10.867 33 L 10.867 30 L 10.867 27 L 0 27 L 0 30 L 3 30 L 3 19.917 L 0 19.917 L -3 19.917 L -3 10.083 L 0 10.083 L 3 10.083 L 3 -0 L 0 -0 Z"/>
    </g>
  </g>
  <g id="ENGRAVE" class="text">
    <text x="70.5" y="48" text-anchor="middle" dominant-baseline="middle">BOTTOM</text>
    <text x="229.5" y="114" text-anchor="middle" dominant-baseline="middle">BACK</text>
    <text x="48" y="357" text-anchor="middle" dominant-baseline="middle">LEFT</text>
    <text x="162" y="357" text-anchor="middle" dominant-baseline="middle">RIGHT</text>
    <text x="70.5" y="600" text-anchor="middle" dominant-baseline="middle">FRONT</text>
    <text x="229.9" y="534.4" text-anchor="middle" dominant-baseline="middle">LID_TOP</text>
    <text x="70.9" y="744" text-anchor="middle" dominant-baseline="middle">LID_BACK</text>
    <text x="230.7" y="744" text-anchor="middle" dominant-baseline="middle">LID_FRONT</text>
    <text x="48.4" y="789" text-anchor="middle" dominant-baseline="middle">LID_LEFT</text>
    <text x="163.2" y="789" text-anchor="middle" dominant-baseline="middle">LID_RIGHT</text>
  </g>
</svg>
