<?xml version="1.0" encoding="UTF-8"?>
<svg xmlns="http://www.w3.org/2000/svg" width="210mm" height="255mm" viewBox="0 0 210 255">
  <desc>Generated by cardboxgen</desc>
  <style>
    .cut { fill: none; stroke: #ff0000; stroke-width: 0.2; }
    .score { fill: none; stroke: #0000ff; stroke-width: 0.2; stroke-dasharray: 2 2; }
    .engrave { fill: none; stroke: #000000; stroke-width: 0.2; }
    .text { fill: #000000; font-family: Arial, sans-serif; font-size: 4px; }
  </style>
  <!-- calibration: {"thickness": 3.0, "kerf_mm": 0.2, "clearances": [-0.1, -0.05, 0.0, 0.05, 0.1, 0.15, 0.2]} -->
  <g id="CUT" class="cut">
    <path d="M 0 0 L 0 -3 L 10.222 -3 L 10.222 0 L 10.222 3 L 19.944 3 L 19.944 0 L 19.944 -3 L 30.167 -3 L 30.167 0 L 30.167 3 L 39.889 3 L 39.889 0 L 39.889 -3 L 50.111 -3 L 50.111 0 L 50.111 3 L 59.833 3 L 59.833 0 L 59.833 -3 L 70.056 -3 L 70.056 0 L 70.056 3 L 79.778 3 L 79.778 0 L 79.778 -3 L 90 -3 L 90 0 L 90 25 L 0 25 L 0 0 Z"/>
    <path d="M 100 0 L 100 3 L 110.222 3 L 110.222 0 L 110.222 -3 L 119.944 -3 L 119.944 0 L 119.944 3 L 130.167 3 L 130.167 0 L 130.167 -3 L 139.889 -3 L 139.889 0 L 139.889 3 L 150.111 3 L 150.111 0 L 150.111 -3 L 159.833 -3 L 159.833 0 L 159.833 3 L 170.056 3 L 170.056 0 L 170.056 -3 L 179.778 -3 L 179.778 0 L 179.778 3 L 190 3 L 190 0 L 190 25 L 100 25 L 100 0 Z"/>
    <path d="M 0 35 L 0 32 L 10.2 32 L 10.2 35 L 10.2 38 L 19.95 38 L 19.95 35 L 19.95 32 L 30.15 32 L 30.15 35 L 30.15 38 L 39.9 38 L 39.9 35 L 39.9 32 L 50.1 32 L 50.1 35 L 50.1 38 L 59.85 38 L 59.85 35 L 59.85 32 L 70.05 32 L 70.05 35 L 70.05 38 L 79.8 38 L 79.8 35 L 79.8 32 L 90 32 L 90 35 L 90 60 L 0 60 L 0 35 Z"/>
    <path d="M 100 35 L 100 38 L 110.2 38 L 110.2 35 L 110.2 32 L 119.95 32 L 119.95 35 L 119.95 38 L 130.15 38 L 130.15 35 L 130.15 32 L 139.9 32 L 139.9 35 L 139.9 38 L 150.1 38 L 150.1 35 L 150.1 32 L 159.85 32 L 159.85 35 L 159.85 38 L 170.05 38 L 170.05 35 L 170.05 32 L 179.8 32 L 179.8 35 L 179.8 38 L 190 38 L 190 35 L 190 60 L 100 60 L 100 35 Z"/>
    <path d="M 0 70 L 0 67 L 10.178 67 L 10.178 70 L 10.178 73 L 19.956 73 L 19.956 70 L 19.956 67 L 30.133 67 L 30.133 70 L 30.133 73 L 39.911 73 L 39.911 70 L 39.911 67 L 50.089 67 L 50.089 70 L 50.089 73 L 59.867 73 L 59.867 70 L 59.867 67 L 70.044 67 L 70.044 70 L 70.044 73 L 79.822 73 L 79.822 70 L 79.822 67 L 90 67 L 90 70 L 90 95 L 0 95 L 0 70 Z"/>
    <path d="M 100 70 L 100 73 L 110.178 73 L 110.178 70 L 110.178 67 L 119.956 67 L 119.956 70 L 119.956 73 L 130.133 73 L 130.133 70 L 130.133 67 L 139.911 67 L 139.911 70 L 139.911 73 L 150.089 73 L 150.089 70 L 150.089 67 L 159.867 67 L 159.867 70 L 159.867 73 L 170.044 73 L 170.044 70 L 170.044 67 L 179.822 67 L 179.822 70 L 179.822 73 L 190 73 L 190 70 L 190 95 L 100 95 L 100 70 Z"/>
    <path d="M 0 105 L 0 102 L 10.156 102 L 10.156 105 L 10.156 108 L 19.961 108 L 19.961 105 L 19.961 102 L 30.117 102 L 30.117 105 L 30.117 108 L 39.922 108 L 39.922 105 L 39.922 102 L 50.078 102 L 50.078 105 L 50.078 108 L 59.883 108 L 59.883 105 L 59.883 102 L 70.039 102 L 70.039 105 L 70.039 108 L 79.844 108 L 79.844 105 L 79.844 102 L 90 102 L 90 105 L 90 130 L 0 130 L 0 105 Z"/>
    <path d="M 100 105 L 100 108 L 110.156 108 L 110.156 105 L 110.156 102 L 119.961 102 L 119.961 105 L 119.961 108 L 130.117 108 L 130.117 105 L 130.117 102 L 139.922 102 L 139.922 105 L 139.922 108 L 150.078 108 L 150.078 105 L 150.078 102 L 159.883 102 L 159.883 105 L 159.883 108 L 170.039 108 L 170.039 105 L 170.039 102 L 179.844 102 L 179.844 105 L 179.844 108 L 190 108 L 190 105 L 190 130 L 100 130 L 100 105 Z"/>
    <path d="M 0 140 L 0 137 L 10.133 137 L 10.133 140 L 10.133 143 L 19.967 143 L 19.967 140 L 19.967 137 L 30.1 137 L 30.1 140 L 30.1 143 L 39.933 143 L 39.933 140 L 39.933 137 L 50.067 137 L 50.067 140 L 50.067 143 L 59.9 143 L 59.9 140 L 59.9 137 L 70.033 137 L 70.033 140 L 70.033 143 L 79.867 143 L 79.867 140 L 79.867 137 L 90 137 L 90 140 L 90 165 L 0 165 L 0 140 Z"/>
    <path d="M 100 140 L 100 143 L 110.133 143 L 110.133 140 L 110.133 137 L 119.967 137 L 119.967 140 L 119.967 143 L 130.1 143 L 130.1 140 L 130.1 137 L 139.933 137 L 139.933 140 L 139.933 143 L 150.067 143 L 150.067 140 L 150.067 137 L 159.9 137 L 159.9 140 L 159.9 143 L 170.033 143 L 170.033 140 L 170.033 137 L 179.867 137 L 179.867 140 L 179.867 143 L 190 143 L 190 140 L 190 165 L 100 165 L 100 140 Z"/>
    <path d="M 0 175 L 0 172 L 10.111 172 L 10.111 175 L 10.111 178 L 19.972 178 L 19.972 175 L 19.972 172 L 30.083 172 L 30.083 175 L 30.083 178 L 39.944 178 L 39.944 175 L 39.944 172 L 50.056 172 L 50.056 175 L 50.056 178 L 59.917 178 L 59.917 175 L 59.917 172 L 70.028 172 L 70.028 175 L 70.028 178 L 79.889 178 L 79.889 175 L 79.889 172 L 90 172 L 90 175 L 90 200 L 0 200 L 0 175 Z"/>
    <path d="M 100 175 L 100 178 L 110.111 178 L 110.111 175 L 110.111 172 L 119.972 172 L 119.972 175 L 119.972 178 L 130.083 178 L 130.083 175 L 130.083 172 L 139.944 172 L 139.944 175 L 139.944 178 L 150.056 178 L 150.056 175 L 150.056 172 L 159.917 172 L 159.917 175 L 159.917 178 L 170.028 178 L 170.028 175 L 170.028 172 L 179.889 172 L 179.889 175 L 179.889 178 L 190 178 L 190 175 L 190 200 L 100 200 L 100 175 Z"/>
    <path d="M 0 210 L 0 207 L 10.089 207 L 10.089 210 L 10.089 213 L 19.978 213 L 19.978 210 L 19.978 207 L 30.067 207 L 30.067 210 L 30.067 213 L 39.956 213 L 39.956 210 L 39.956 207 L 50.044 207 L 50.044 210 L 50.044 213 L 59.933 213 L 59.933 210 L 59.933 207 L 70.022 207 L 70.022 210 L 70.022 213 L 79.911 213 L 79.911 210 L 79.911 207 L 90 207 L 90 210 L 90 235 L 0 235 L 0 210 Z"/>
    <path d="M 100 210 L 100 213 L 110.089 213 L 110.089 210 L 110.089 207 L 119.978 207 L 119.978 210 L 119.978 213 L 130.067 213 L 130.067 210 L 130.067 207 L 139.956 207 L 139.956 210 L 139.956 213 L 150.044 213 L 150.044 210 L 150.044 207 L 159.933 207 L 159.933 210 L 159.933 213 L 170.022 213 L 170.022 210 L 170.022 207 L 179.911 207 L 179.911 210 L 179.911 213 L 190 213 L 190 210 L 190 235 L 100 235 L 100 210 Z"/>
  </g>
  <g id="ENGRAVE" class="text">
    <text x="45" y="12.5" text-anchor="middle" dominant-baseline="middle">A clr -0.10</text>
    <text x="145" y="12.5" text-anchor="middle" dominant-baseline="middle">B clr -0.10</text>
    <text x="45" y="47.5" text-anchor="middle" dominant-baseline="middle">A clr -0.05</text>
    <text x="145" y="47.5" text-anchor="middle" dominant-baseline="middle">B clr -0.05</text>
    <text x="45" y="82.5" text-anchor="middle" dominant-baseline="middle">A clr +0.00</text>
    <text x="145" y="82.5" text-anchor="middle" dominant-baseline="middle">B clr +0.00</text>
    <text x="45" y="117.5" text-anchor="middle" dominant-baseline="middle">A clr +0.05</text>
    <text x="145" y="117.5" text-anchor="middle" dominant-baseline="middle">B clr +0.05</text>
    <text x="45" y="152.5" text-anchor="middle" dominant-baseline="middle">A clr +0.10</text>
    <text x="145" y="152.5" text-anchor="middle" dominant-baseline="middle">B clr +0.10</text>
    <text x="45" y="187.5" text-anchor="middle" dominant-baseline="middle">A clr +0.15</text>
    <text x="145" y="187.5" text-anchor="middle" dominant-baseline="middle">B clr +0.15</text>
    <text x="45" y="222.5" text-anchor="middle" dominant-baseline="middle">A clr +0.20</text>
    <text x="145" y="222.5" text-anchor="middle" dominant-baseline="middle">B clr +0.20</text>
  </g>
</svg>
