<?xml version="1.0" encoding="UTF-8"?>
<svg xmlns="http://www.w3.org/2000/svg" width="330mm" height="729mm" viewBox="0 0 330 729">
  <desc>Generated by cardboxgen</desc>
  <style>
    .cut { fill: none; stroke: #ff0000; stroke-width: 0.2; }
    .score { fill: none; stroke: #0000ff; stroke-width: 0.2; stroke-dasharray: 2 2; }
    .engrave { fill: none; stroke: #000000; stroke-width: 0.2; }
    .text { fill: #000000; font-family: Arial, sans-serif; font-size: 4px; }
  </style>
  <!-- params: {"variant": "A", "preset": "dispenser_slot_front", "inner_width": 135, "inner_depth": 90, "inner_height": 225,
"thickness": 3, "kerf_mm": 0.2, "clearance_mm": 0.15, "finger_width": null, "min_fingers": 3, "finger_count_outer":
null, "finger_count_vertical": null, "lid": false, "lid_height": 25.0, "lid_clearance": 0.4, "front_height": null,
"scoop": false, "scoop_radius": 22.0, "scoop_depth": 18.0, "slot_width": 86, "slot_height": 18, "slot_y_from_bottom":
38, "window_margin": 18.0, "window_corner_r": 6.0, "thumb_notch_radius": 10.0, "thumb_notch_depth": 8.0, "labels": true,
"sheet_width": 340, "export": "single_svg", "offset_kerf": false} -->
  <g id="CUT" class="cut">
    <g id="BOTTOM" transform="translate(0,0)">
      <path d="M 0 0 L 0 -3 L 9.517 -3 L 9.517 0 L 9.517 3 L 18.783 3 L 18.783 0 L 18.783 -3 L 28.3 -3 L 28.3 0 L 28.3 3 L 37.567 3 L 37.567 0 L 37.567 -3 L 47.083 -3 L 47.083 0 L 47.083 3 L 56.35 3 L 56.35 0 L 56.35 -3 L 65.867 -3 L 65.867 0 L 65.867 3 L 75.133 3 L 75.133 0 L 75.133 -3 L 84.65 -3 L 84.65 0 L 84.65 3 L 93.917 3 L 93.917 0 L 93.917 -3 L 103.433 -3 L 103.433 0 L 103.433 3 L 112.7 3 L 112.7 0 L 112.7 -3 L 122.217 -3 L 122.217 0 L 122.217 3 L 131.483 3 L 131.483 0 L 131.483 -3 L 141 -3 L 141 0 L 144 0 L 144 10.778 L 141 10.778 L 138 10.778 L 138 21.306 L 141 21.306 L 144 21.306 L 144 32.083 L 141 32.083 L 138 32.083 L 138 42.611 L 141 42.611 L 144 42.611 L 144 53.389 L 141 53.389 L 138 53.389 L 138 63.917 L 141 63.917 L 144 63.917 L 144 74.694 L 141 74.694 L 138 74.694 L 138 85.222 L 141 85.222 L 144 85.222 L 144 96 L 141 96 L 141 99 L 131.483 99 L 131.483 96 L 131.483 93 L 122.217 93 L 122.217 96 L 122.217 99 L 112.7 99 L 112.7 96 L 112.7 93 L 103.433 93 L 103.433 96 L 103.433 99 L 93.917 99 L 93.917 96 L 93.917 93 L 84.65 93 L 84.65 96 L 84.65 99 L 75.133 99 L 75.133 96 L 75.133 93 L 65.867 93 L 65.867 96 L 65.867 99 L 56.35 99 L 56.35 96 L 56.35 93 L 47.083 93 L 47.083 96 L 47.083 99 L 37.567 99 L 37.567 96 L 37.567 93 L 28.3 93 L 28.3 96 L 28.3 99 L 18.783 99 L 18.783 96 L 18.783 93 L 9.517 93 L 9.517 96 L 9.517 99 L 0 99 L 0 96 L -3 96 L -3 85.222 L 0 85.222 L 3 85.222 L 3 74.694 L 0 74.694 L -3 74.694 L -3 63.917 L 0 63.917 L 3 63.917 L 3 53.389 L 0 53.389 L -3 53.389 L -3 42.611 L 0 42.611 L 3 42.611 L 3 32.083 L 0 32.083 L -3 32.083 L -3 21.306 L 0 21.306 L 3 21.306 L 3 10.778 L 0 10.778 L -3 10.778 L -3 -0 L 0 -0 Z"/>
    </g>
    <g id="BACK" transform="translate(159,0)">
      <path d="M 0 0 L 141 0 L 144 0 L 144 10.033 L 141 10.033 L 138 10.033 L 138 19.815 L 141 19.815 L 144 19.815 L 144 29.848 L 141 29.848 L 138 29.848 L 138 39.63 L 141 39.63 L 144 39.63 L 144 49.663 L 141 49.663 L 138 49.663 L 138 59.446 L 141 59.446 L 144 59.446 L 144 69.478 L 141 69.478 L 138 69.478 L 138 79.261 L 141 79.261 L 144 79.261 L 144 89.293 L 141 89.293 L 138 89.293 L 138 99.076 L 141 99.076 L 144 99.076 L 144 109.109 L 141 109.109 L 138 109.109 L 138 118.891 L 141 118.891 L 144 118.891 L 144 128.924 L 141 128.924 L 138 128.924 L 138 138.707 L 141 138.707 L 144 138.707 L 144 148.739 L 141 148.739 L 138 148.739 L 138 158.522 L 141 158.522 L 144 158.522 L 144 168.554 L 141 168.554 L 138 168.554 L 138 178.337 L 141 178.337 L 144 178.337 L 144 188.37 L 141 188.37 L 138 188.37 L 138 198.152 L 141 198.152 L 144 198.152 L 144 208.185 L 141 208.185 L 138 208.185 L 138 217.967 L 141 217.967 L 144 217.967 L 144 228 L 141 228 L 141 225 L 131.483 225 L 131.483 228 L 131.483 231 L 122.217 231 L 122.217 228 L 122.217 225 L 112.7 225 L 112.7 228 L 112.7 231 L 103.433 231 L 103.433 228 L 103.433 225 L 93.917 225 L 93.917 228 L 93.917 231 L 84.65 231 L 84.65 228 L 84.65 225 L 75.133 225 L 75.133 228 L 75.133 231 L 65.867 231 L 65.867 228 L 65.867 225 L 56.35 225 L 56.35 228 L 56.35 231 L 47.083 231 L 47.083 228 L 47.083 225 L 37.567 225 L 37.567 228 L 37.567 231 L 28.3 231 L 28.3 228 L 28.3 225 L 18.783 225 L 18.783 228 L 18.783 231 L 9.517 231 L 9.517 228 L 9.517 225 L 0 225 L 0 228 L -3 228 L -3 217.967 L 0 217.967 L 3 217.967 L 3 208.185 L 0 208.185 L -3 208.185 L -3 198.152 L 0 198.152 L 3 198.152 L 3 188.37 L 0 188.37 L -3 188.37 L -3 178.337 L 0 178.337 L 3 178.337 L 3 168.554 L 0 168.554 L -3 168.554 L -3 158.522 L 0 158.522 L 3 158.522 L 3 148.739 L 0 148.739 L -3 148.739 L -3 138.707 L 0 138.707 L 3 138.707 L 3 128.924 L 0 128.924 L -3 128.924 L -3 118.891 L 0 118.891 L 3 118.891 L 3 109.109 L 0 109.109 L -3 109.109 L -3 99.076 L 0 99.076 L 3 99.076 L 3 89.293 L 0 89.293 L -3 89.293 L -3 79.261 L 0 79.261 L 3 79.261 L 3 69.478 L 0 69.478 L -3 69.478 L -3 59.446 L 0 59.446 L 3 59.446 L 3 49.663 L 0 49.663 L -3 49.663 L -3 39.63 L 0 39.63 L 3 39.63 L 3 29.848 L 0 29.848 L -3 29.848 L -3 19.815 L 0 19.815 L 3 19.815 L 3 10.033 L 0 10.033 L -3 10.033 L -3 -0 L 0 -0 Z"/>
    </g>
    <g id="LEFT" transform="translate(0,243)">
      <path d="M 0 0 L 96 0 L 93 0 L 93 10.033 L 96 10.033 L 99 10.033 L 99 19.815 L 96 19.815 L 93 19.815 L 93 29.848 L 96 29.848 L 99 29.848 L 99 39.63 L 96 39.63 L 93 39.63 L 93 49.663 L 96 49.663 L 99 49.663 L 99 59.446 L 96 59.446 L 93 59.446 L 93 69.478 L 96 69.478 L 99 69.478 L 99 79.261 L 96 79.261 L 93 79.261 L 93 89.293 L 96 89.293 L 99 89.293 L 99 99.076 L 96 99.076 L 93 99.076 L 93 109.109 L 96 109.109 L 99 109.109 L 99 118.891 L 96 118.891 L 93 118.891 L 93 128.924 L 96 128.924 L 99 128.924 L 99 138.707 L 96 138.707 L 93 138.707 L 93 148.739 L 96 148.739 L 99 148.739 L 99 158.522 L 96 158.522 L 93 158.522 L 93 168.554 L 96 168.554 L 99 168.554 L 99 178.337 L 96 178.337 L 93 178.337 L 93 188.37 L 96 188.37 L 99 188.37 L 99 198.152 L 96 198.152 L 93 198.152 L 93 208.185 L 96 208.185 L 99 208.185 L 99 217.967 L 96 217.967 L 93 217.967 L 93 228 L 96 228 L 96 225 L 85.222 225 L 85.222 228 L 85.222 231 L 74.694 231 L 74.694 228 L 74.694 225 L 63.917 225 L 63.917 228 L 63.917 231 L 53.389 231 L 53.389 228 L 53.389 225 L 42.611 225 L 42.611 228 L 42.611 231 L 32.083 231 L 32.083 228 L 32.083 225 L 21.306 225 L 21.306 228 L 21.306 231 L 10.778 231 L 10.778 228 L 10.778 225 L -0 225 L -0 228 L 3 228 L 3 217.967 L 0 217.967 L -3 217.967 L -3 208.185 L 0 208.185 L 3 208.185 L 3 198.152 L 0 198.152 L -3 198.152 L -3 188.37 L 0 188.37 L 3 188.37 L 3 178.337 L 0 178.337 L -3 178.337 L -3 168.554 L 0 168.554 L 3 168.554 L 3 158.522 L 0 158.522 L -3 158.522 L -3 148.739 L 0 148.739 L 3 148.739 L 3 138.707 L 0 138.707 L -3 138.707 L -3 128.924 L 0 128.924 L 3 128.924 L 3 118.891 L 0 118.891 L -3 118.891 L -3 109.109 L 0 109.109 L 3 109.109 L 3 99.076 L 0 99.076 L -3 99.076 L -3 89.293 L 0 89.293 L 3 89.293 L 3 79.261 L 0 79.261 L -3 79.261 L -3 69.478 L 0 69.478 L 3 69.478 L 3 59.446 L 0 59.446 L -3 59.446 L -3 49.663 L 0 49.663 L 3 49.663 L 3 39.63 L 0 39.63 L -3 39.63 L -3 29.848 L 0 29.848 L 3 29.848 L 3 19.815 L 0 19.815 L -3 19.815 L -3 10.033 L 0 10.033 L 3 10.033 L 3 -0 L 0 -0 Z"/>
    </g>
    <g id="RIGHT" transform="translate(114,243)">
      <path d="M 0 0 L 96 0 L 93 0 L 93 10.033 L 96 10.033 L 99 10.033 L 99 19.815 L 96 19.815 L 93 19.815 L 93 29.848 L 96 29.848 L 99 29.848 L 99 39.63 L 96 39.63 L 93 39.63 L 93 49.663 L 96 49.663 L 99 49.663 L 99 59.446 L 96 59.446 L 93 59.446 L 93 69.478 L 96 69.478 L 99 69.478 L 99 79.261 L 96 79.261 L 93 79.261 L 93 89.293 L 96 89.293 L 99 89.293 L 99 99.076 L 96 99.076 L 93 99.076 L 93 109.109 L 96 109.109 L 99 109.109 L 99 118.891 L 96 118.891 L 93 118.891 L 93 128.924 L 96 128.924 L 99 128.924 L 99 138.707 L 96 138.707 L 93 138.707 L 93 148.739 L 96 148.739 L 99 148.739 L 99 158.522 L 96 158.522 L 93 158.522 L 93 168.554 L 96 168.554 L 99 168.554 L 99 178.337 L 96 178.337 L 93 178.337 L 93 188.37 L 96 188.37 L 99 188.37 L 99 198.152 L 96 198.152 L 93 198.152 L 93 208.185 L 96 208.185 L 99 208.185 L 99 217.967 L 96 217.967 L 93 217.967 L 93 228 L 96 228 L 96 225 L 85.222 225 L 85.222 228 L 85.222 231 L 74.694 231 L 74.694 228 L 74.694 225 L 63.917 225 L 63.917 228 L 63.917 231 L 53.389 231 L 53.389 228 L 53.389 225 L 42.611 225 L 42.611 228 L 42.611 231 L 32.083 231 L 32.083 228 L 32.083 225 L 21.306 225 L 21.306 228 L 21.306 231 L 10.778 231 L 10.778 228 L 10.778 225 L -0 225 L -0 228 L 3 228 L 3 217.967 L 0 217.967 L -3 217.967 L -3 208.185 L 0 208.185 L 3 208.185 L 3 198.152 L 0 198.152 L -3 198.152 L -3 188.37 L 0 188.37 L 3 188.37 L 3 178.337 L 0 178.337 L -3 178.337 L -3 168.554 L 0 168.554 L 3 168.554 L 3 158.522 L 0 158.522 L -3 158.522 L -3 148.739 L 0 148.739 L 3 148.739 L 3 138.707 L 0 138.707 L -3 138.707 L -3 128.924 L 0 128.924 L 3 128.924 L 3 118.891 L 0 118.891 L -3 118.891 L -3 109.109 L 0 109.109 L 3 109.109 L 3 99.076 L 0 99.076 L -3 99.076 L -3 89.293 L 0 89.293 L 3 89.293 L 3 79.261 L 0 79.261 L -3 79.261 L -3 69.478 L 0 69.478 L 3 69.478 L 3 59.446 L 0 59.446 L -3 59.446 L -3 49.663 L 0 49.663 L 3 49.663 L 3 39.63 L 0 39.63 L -3 39.63 L -3 29.848 L 0 29.848 L 3 29.848 L 3 19.815 L 0 19.815 L -3 19.815 L -3 10.033 L 0 10.033 L 3 10.033 L 3 -0 L 0 -0 Z"/>
    </g>
    <g id="FRONT" transform="translate(0,486)">
      <path d="M 0 0 L 141 0 L 144 0 L 144 10.033 L 141 10.033 L 138 10.033 L 138 19.815 L 141 19.815 L 144 19.815 L 144 29.848 L 141 29.848 L 138 29.848 L 138 39.63 L 141 39.63 L 144 39.63 L 144 49.663 L 141 49.663 L 138 49.663 L 138 59.446 L 141 59.446 L 144 59.446 L 144 69.478 L 141 69.478 L 138 69.478 L 138 79.261 L 141 79.261 L 144 79.261 L 144 89.293 L 141 89.293 L 138 89.293 L 138 99.076 L 141 99.076 L 144 99.076 L 144 109.109 L 141 109.109 L 138 109.109 L 138 118.891 L 141 118.891 L 144 118.891 L 144 128.924 L 141 128.924 L 138 128.924 L 138 138.707 L 141 138.707 L 144 138.707 L 144 148.739 L 141 148.739 L 138 148.739 L 138 158.522 L 141 158.522 L 144 158.522 L 144 168.554 L 141 168.554 L 138 168.554 L 138 178.337 L 141 178.337 L 144 178.337 L 144 188.37 L 141 188.37 L 138 188.37 L 138 198.152 L 141 198.152 L 144 198.152 L 144 208.185 L 141 208.185 L 138 208.185 L 138 217.967 L 141 217.967 L 144 217.967 L 144 228 L 141 228 L 141 225 L 131.483 225 L 131.483 228 L 131.483 231 L 122.217 231 L 122.217 228 L 122.217 225 L 112.7 225 L 112.7 228 L 112.7 231 L 103.433 231 L 103.433 228 L 103.433 225 L 93.917 225 L 93.917 228 L 93.917 231 L 84.65 231 L 84.65 228 L 84.65 225 L 75.133 225 L 75.133 228 L 75.133 231 L 65.867 231 L 65.867 228 L 65.867 225 L 56.35 225 L 56.35 228 L 56.35 231 L 47.083 231 L 47.083 228 L 47.083 225 L 37.567 225 L 37.567 228 L 37.567 231 L 28.3 231 L 28.3 228 L 28.3 225 L 18.783 225 L 18.783 228 L 18.783 231 L 9.517 231 L 9.517 228 L 9.517 225 L 0 225 L 0 228 L -3 228 L -3 217.967 L 0 217.967 L 3 217.967 L 3 208.185 L 0 208.185 L -3 208.185 L -3 198.152 L 0 198.152 L 3 198.152 L 3 188.37 L 0 188.37 L -3 188.37 L -3 178.337 L 0 178.337 L 3 178.337 L 3 168.554 L 0 168.554 L -3 168.554 L -3 158.522 L 0 158.522 L 3 158.522 L 3 148.739 L 0 148.739 L -3 148.739 L -3 138.707 L 0 138.707 L 3 138.707 L 3 128.924 L 0 128.924 L -3 128.924 L -3 118.891 L 0 118.891 L 3 118.891 L 3 109.109 L 0 109.109 L -3 109.109 L -3 99.076 L 0 99.076 L 3 99.076 L 3 89.293 L 0 89.293 L -3 89.293 L -3 79.261 L 0 79.261 L 3 79.261 L 3 69.478 L 0 69.478 L -3 69.478 L -3 59.446 L 0 59.446 L 3 59.446 L 3 49.663 L 0 49.663 L -3 49.663 L -3 39.63 L 0 39.63 L 3 39.63 L 3 29.848 L 0 29.848 L -3 29.848 L -3 19.815 L 0 19.815 L 3 19.815 L 3 10.033 L 0 10.033 L -3 10.033 L -3 -0 L 0 -0 Z"/>
      <path d="M 27.5 172 L 113.5 172 L 113.5 190 L 27.5 190 Z"/>
      <path d="M 60.5 0 L 60.5 8 A 10 10 0 0 0 80.5 8 L 80.5 0 Z"/>
    </g>
  </g>
  <g id="ENGRAVE" class="text">
    <text x="70.5" y="48" text-anchor="middle" dominant-baseline="middle">BOTTOM</text>
    <text x="229.5" y="114" text-anchor="middle" dominant-baseline="middle">BACK</text>
    <text x="48" y="357" text-anchor="middle" dominant-baseline="middle">LEFT</text>
    <text x="162" y="357" text-anchor="middle" dominant-baseline="middle">RIGHT</text>
    <text x="70.5" y="600" text-anchor="middle" dominant-baseline="middle">FRONT</text>
  </g>
</svg>
