<?xml version="1.0" encoding="UTF-8"?>
<svg xmlns="http://www.w3.org/2000/svg" width="330mm" height="626.4mm" viewBox="0 0 330 626.4">
  <desc>Generated by cardboxgen</desc>
  <style>
    .cut { fill: none; stroke: #ff0000; stroke-width: 0.2; }
    .score { fill: none; stroke: #0000ff; stroke-width: 0.2; stroke-dasharray: 2 2; }
    .engrave { fill: none; stroke: #000000; stroke-width: 0.2; }
    .text { fill: #000000; font-family: Arial, sans-serif; font-size: 4px; }
  </style>
  <!-- params: {"variant": "A", "preset": "tray_open_front", "inner_width": 135, "inner_depth": 90, "inner_height": 225, "thickness":
3, "kerf_mm": 0.2, "clearance_mm": 0.15, "finger_width": null, "min_fingers": 3, "finger_count_outer": null,
"finger_count_vertical": null, "lid": false, "lid_height": 25.0, "lid_clearance": 0.4, "front_height": null, "scoop":
true, "scoop_radius": 22.0, "scoop_depth": 18.0, "slot_width": 80.0, "slot_height": 18.0, "slot_y_from_bottom": 35.0,
"window_margin": 18.0, "window_corner_r": 6.0, "thumb_notch_radius": 10.0, "thumb_notch_depth": 8.0, "labels": true,
"sheet_width": 340, "export": "single_svg", "offset_kerf": false} -->
  <g id="CUT" class="cut">
    <g id="BOTTOM" transform="translate(0,0)">
      <path d="M 0 0 L 0 -3 L 9.517 -3 L 9.517 0 L 9.517 3 L 18.783 3 L 18.783 0 L 18.783 -3 L 28.3 -3 L 28.3 0 L 28.3 3 L 37.567 3 L 37.567 0 L 37.567 -3 L 47.083 -3 L 47.083 0 L 47.083 3 L 56.35 3 L 56.35 0 L 56.35 -3 L 65.867 -3 L 65.867 0 L 65.867 3 L 75.133 3 L 75.133 0 L 75.133 -3 L 84.65 -3 L 84.65 0 L 84.65 3 L 93.917 3 L 93.917 0 L 93.917 -3 L 103.433 -3 L 103.433 0 L 103.433 3 L 112.7 3 L 112.7 0 L 112.7 -3 L 122.217 -3 L 122.217 0 L 122.217 3 L 131.483 3 L 131.483 0 L 131.483 -3 L 141 -3 L 141 0 L 144 0 L 144 10.778 L 141 10.778 L 138 10.778 L 138 21.306 L 141 21.306 L 144 21.306 L 144 32.083 L 141 32.083 L 138 32.083 L 138 42.611 L 141 42.611 L 144 42.611 L 144 53.389 L 141 53.389 L 138 53.389 L 138 63.917 L 141 63.917 L 144 63.917 L 144 74.694 L 141 74.694 L 138 74.694 L 138 85.222 L 141 85.222 L 144 85.222 L 144 96 L 141 96 L 141 99 L 131.483 99 L 131.483 96 L 131.483 93 L 122.217 93 L 122.217 96 L 122.217 99 L 112.7 99 L 112.7 96 L 112.7 93 L 103.433 93 L 103.433 96 L 103.433 99 L 93.917 99 L 93.917 96 L 93.917 93 L 84.65 93 L 84.65 96 L 84.65 99 L 75.133 99 L 75.133 96 L 75.133 93 L 65.867 93 L 65.867 96 L 65.867 99 L 56.35 99 L 56.35 96 L 56.35 93 L 47.083 93 L 47.083 96 L 47.083 99 L 37.567 99 L 37.567 96 L 37.567 93 L 28.3 93 L 28.3 96 L 28.3 99 L 18.783 99 L 18.783 96 L 18.783 93 L 9.517 93 L 9.517 96 L 9.517 99 L 0 99 L 0 96 L -3 96 L -3 85.222 L 0 85.222 L 3 85.222 L 3 74.694 L 0 74.694 L -3 74.694 L -3 63.917 L 0 63.917 L 3 63.917 L 3 53.389 L 0 53.389 L -3 53.389 L -3 42.611 L 0 42.611 L 3 42.611 L 3 32.083 L 0 32.083 L -3 32.083 L -3 21.306 L 0 21.306 L 3 21.306 L 3 10.778 L 0 10.778 L -3 10.778 L -3 -0 L 0 -0 Z"/>
    </g>
    <g id="BACK" transform="translate(159,0)">
      <path d="M 0 0 L 141 0 L 144 0 L 144 10.033 L 141 10.033 L 138 10.033 L 138 19.815 L 141 19.815 L 144 19.815 L 144 29.848 L 141 29.848 L 138 29.848 L 138 39.63 L 141 39.63 L 144 39.63 L 144 49.663 L 141 49.663 L 138 49.663 L 138 59.446 L 141 59.446 L 144 59.446 L 144 69.478 L 141 69.478 L 138 69.478 L 138 79.261 L 141 79.261 L 144 79.261 L 144 89.293 L 141 89.293 L 138 89.293 L 138 99.076 L 141 99.076 L 144 99.076 L 144 109.109 L 141 109.109 L 138 109.109 L 138 118.891 L 141 118.891 L 144 118.891 L 144 128.924 L 141 128.924 L 138 128.924 L 138 138.707 L 141 138.707 L 144 138.707 L 144 148.739 L 141 148.739 L 138 148.739 L 138 158.522 L 141 158.522 L 144 158.522 L 144 168.554 L 141 168.554 L 138 168.554 L 138 178.337 L 141 178.337 L 144 178.337 L 144 188.37 L 141 188.37 L 138 188.37 L 138 198.152 L 141 198.152 L 144 198.152 L 144 208.185 L 141 208.185 L 138 208.185 L 138 217.967 L 141 217.967 L 144 217.967 L 144 228 L 141 228 L 141 225 L 131.483 225 L 131.483 228 L 131.483 231 L 122.217 231 L 122.217 228 L 122.217 225 L 112.7 225 L 112.7 228 L 112.7 231 L 103.433 231 L 103.433 228 L 103.433 225 L 93.917 225 L 93.917 228 L 93.917 231 L 84.65 231 L 84.65 228 L 84.65 225 L 75.133 225 L 75.133 228 L 75.133 231 L 65.867 231 L 65.867 228 L 65.867 225 L 56.35 225 L 56.35 228 L 56.35 231 L 47.083 231 L 47.083 228 L 47.083 225 L 37.567 225 L 37.567 228 L 37.567 231 L 28.3 231 L 28.3 228 L 28.3 225 L 18.783 225 L 18.783 228 L 18.783 231 L 9.517 231 L 9.517 228 L 9.517 225 L 0 225 L 0 228 L -3 228 L -3 217.967 L 0 217.967 L 3 217.967 L 3 208.185 L 0 208.185 L -3 208.185 L -3 198.152 L 0 198.152 L 3 198.152 L 3 188.37 L 0 188.37 L -3 188.37 L -3 178.337 L 0 178.337 L 3 178.337 L 3 168.554 L 0 168.554 L -3 168.554 L -3 158.522 L 0 158.522 L 3 158.522 L 3 148.739 L 0 148.739 L -3 148.739 L -3 138.707 L 0 138.707 L 3 138.707 L 3 128.924 L 0 128.924 L -3 128.924 L -3 118.891 L 0 118.891 L 3 118.891 L 3 109.109 L 0 109.109 L -3 109.109 L -3 99.076 L 0 99.076 L 3 99.076 L 3 89.293 L 0 89.293 L -3 89.293 L -3 79.261 L 0 79.261 L 3 79.261 L 3 69.478 L 0 69.478 L -3 69.478 L -3 59.446 L 0 59.446 L 3 59.446 L 3 49.663 L 0 49.663 L -3 49.663 L -3 39.63 L 0 39.63 L 3 39.63 L 3 29.848 L 0 29.848 L -3 29.848 L -3 19.815 L 0 19.815 L 3 19.815 L 3 10.033 L 0 10.033 L -3 10.033 L -3 -0 L 0 -0 Z"/>
    </g>
    <g id="LEFT" transform="translate(0,243)">
      <path d="M 0 0 L 96 0 L 93 0 L 93 10.033 L 96 10.033 L 99 10.033 L 99 19.815 L 96 19.815 L 93 19.815 L 93 29.848 L 96 29.848 L 99 29.848 L 99 39.63 L 96 39.63 L 93 39.63 L 93 49.663 L 96 49.663 L 99 49.663 L 99 59.446 L 96 59.446 L 93 59.446 L 93 69.478 L 96 69.478 L 99 69.478 L 99 79.261 L 96 79.261 L 93 79.261 L 93 89.293 L 96 89.293 L 99 89.293 L 99 99.076 L 96 99.076 L 93 99.076 L 93 109.109 L 96 109.109 L 99 109.109 L 99 118.891 L 96 118.891 L 93 118.891 L 93 128.924 L 96 128.924 L 99 128.924 L 99 138.707 L 96 138.707 L 93 138.707 L 93 148.739 L 96 148.739 L 99 148.739 L 99 158.522 L 96 158.522 L 93 158.522 L 93 168.554 L 96 168.554 L 99 168.554 L 99 178.337 L 96 178.337 L 93 178.337 L 93 188.37 L 96 188.37 L 99 188.37 L 99 198.152 L 96 198.152 L 93 198.152 L 93 208.185 L 96 208.185 L 99 208.185 L 99 217.967 L 96 217.967 L 93 217.967 L 93 228 L 96 228 L 96 225 L 85.222 225 L 85.222 228 L 85.222 231 L 74.694 231 L 74.694 228 L 74.694 225 L 63.917 225 L 63.917 228 L 63.917 231 L 53.389 231 L 53.389 228 L 53.389 225 L 42.611 225 L 42.611 228 L 42.611 231 L 32.083 231 L 32.083 228 L 32.083 225 L 21.306 225 L 21.306 228 L 21.306 231 L 10.778 231 L 10.778 228 L 10.778 225 L -0 225 L -0 228 L 3 228 L 3 218.238 L 0 218.238 L -3 218.238 L -3 208.727 L 0 208.727 L 3 208.727 L 3 198.965 L 0 198.965 L -3 198.965 L -3 189.454 L 0 189.454 L 3 189.454 L 3 179.692 L 0 179.692 L -3 179.692 L -3 170.181 L 0 170.181 L 3 170.181 L 3 160.419 L 0 160.419 L -3 160.419 L -3 150.908 L 0 150.908 L 3 150.908 L 3 141.146 L 0 141.146 L -3 141.146 L -3 131.635 L 0 131.635 L 3 131.635 L 3 121.873 L 0 121.873 L -3 121.873 L -3 112.362 L 0 112.362 L 3 112.362 L 3 102.6 L 0 102.6 Z"/>
    </g>
    <g id="RIGHT" transform="translate(114,243)">
      <path d="M 0 0 L 96 0 L 93 0 L 93 9.762 L 96 9.762 L 99 9.762 L 99 19.273 L 96 19.273 L 93 19.273 L 93 29.035 L 96 29.035 L 99 29.035 L 99 38.546 L 96 38.546 L 93 38.546 L 93 48.308 L 96 48.308 L 99 48.308 L 99 57.819 L 96 57.819 L 93 57.819 L 93 67.581 L 96 67.581 L 99 67.581 L 99 77.092 L 96 77.092 L 93 77.092 L 93 86.854 L 96 86.854 L 99 86.854 L 99 96.365 L 96 96.365 L 93 96.365 L 93 106.127 L 96 106.127 L 99 106.127 L 99 115.638 L 96 115.638 L 93 115.638 L 93 125.4 L 96 125.4 L 96 225 L 85.222 225 L 85.222 228 L 85.222 231 L 74.694 231 L 74.694 228 L 74.694 225 L 63.917 225 L 63.917 228 L 63.917 231 L 53.389 231 L 53.389 228 L 53.389 225 L 42.611 225 L 42.611 228 L 42.611 231 L 32.083 231 L 32.083 228 L 32.083 225 L 21.306 225 L 21.306 228 L 21.306 231 L 10.778 231 L 10.778 228 L 10.778 225 L -0 225 L -0 228 L 3 228 L 3 217.967 L 0 217.967 L -3 217.967 L -3 208.185 L 0 208.185 L 3 208.185 L 3 198.152 L 0 198.152 L -3 198.152 L -3 188.37 L 0 188.37 L 3 188.37 L 3 178.337 L 0 178.337 L -3 178.337 L -3 168.554 L 0 168.554 L 3 168.554 L 3 158.522 L 0 158.522 L -3 158.522 L -3 148.739 L 0 148.739 L 3 148.739 L 3 138.707 L 0 138.707 L -3 138.707 L -3 128.924 L 0 128.924 L 3 128.924 L 3 118.891 L 0 118.891 L -3 118.891 L -3 109.109 L 0 109.109 L 3 109.109 L 3 99.076 L 0 99.076 L -3 99.076 L -3 89.293 L 0 89.293 L 3 89.293 L 3 79.261 L 0 79.261 L -3 79.261 L -3 69.478 L 0 69.478 L 3 69.478 L 3 59.446 L 0 59.446 L -3 59.446 L -3 49.663 L 0 49.663 L 3 49.663 L 3 39.63 L 0 39.63 L -3 39.63 L -3 29.848 L 0 29.848 L 3 29.848 L 3 19.815 L 0 19.815 L -3 19.815 L -3 10.033 L 0 10.033 L 3 10.033 L 3 -0 L 0 -0 Z"/>
    </g>
    <g id="FRONT" transform="translate(0,486)">
      <path d="M 0 0 L 141 0 L 144 0 L 144 9.762 L 141 9.762 L 138 9.762 L 138 19.273 L 141 19.273 L 144 19.273 L 144 29.035 L 141 29.035 L 138 29.035 L 138 38.546 L 141 38.546 L 144 38.546 L 144 48.308 L 141 48.308 L 138 48.308 L 138 57.819 L 141 57.819 L 144 57.819 L 144 67.581 L 141 67.581 L 138 67.581 L 138 77.092 L 141 77.092 L 144 77.092 L 144 86.854 L 141 86.854 L 138 86.854 L 138 96.365 L 141 96.365 L 144 96.365 L 144 106.127 L 141 106.127 L 138 106.127 L 138 115.638 L 141 115.638 L 144 115.638 L 144 125.4 L 141 125.4 L 141 122.4 L 131.483 122.4 L 131.483 125.4 L 131.483 128.4 L 122.217 128.4 L 122.217 125.4 L 122.217 122.4 L 112.7 122.4 L 112.7 125.4 L 112.7 128.4 L 103.433 128.4 L 103.433 125.4 L 103.433 122.4 L 93.917 122.4 L 93.917 125.4 L 93.917 128.4 L 84.65 128.4 L 84.65 125.4 L 84.65 122.4 L 75.133 122.4 L 75.133 125.4 L 75.133 128.4 L 65.867 128.4 L 65.867 125.4 L 65.867 122.4 L 56.35 122.4 L 56.35 125.4 L 56.35 128.4 L 47.083 128.4 L 47.083 125.4 L 47.083 122.4 L 37.567 122.4 L 37.567 125.4 L 37.567 128.4 L 28.3 128.4 L 28.3 125.4 L 28.3 122.4 L 18.783 122.4 L 18.783 125.4 L 18.783 128.4 L 9.517 128.4 L 9.517 125.4 L 9.517 122.4 L 0 122.4 L 0 125.4 L -3 125.4 L -3 115.638 L 0 115.638 L 3 115.638 L 3 106.127 L 0 106.127 L -3 106.127 L -3 96.365 L 0 96.365 L 3 96.365 L 3 86.854 L 0 86.854 L -3 86.854 L -3 77.092 L 0 77.092 L 3 77.092 L 3 67.581 L 0 67.581 L -3 67.581 L -3 57.819 L 0 57.819 L 3 57.819 L 3 48.308 L 0 48.308 L -3 48.308 L -3 38.546 L 0 38.546 L 3 38.546 L 3 29.035 L 0 29.035 L -3 29.035 L -3 19.273 L 0 19.273 L 3 19.273 L 3 9.762 L 0 9.762 L -3 9.762 L -3 0 L 0 0 Z"/>
      <path d="M 48.5 0 L 48.5 18 A 22 22 0 0 0 92.5 18 L 92.5 0 Z"/>
    </g>
  </g>
  <g id="ENGRAVE" class="text">
    <text x="70.5" y="48" text-anchor="middle" dominant-baseline="middle">BOTTOM</text>
    <text x="229.5" y="114" text-anchor="middle" dominant-baseline="middle">BACK</text>
    <text x="48" y="357" text-anchor="middle" dominant-baseline="middle">LEFT</text>
    <text x="162" y="357" text-anchor="middle" dominant-baseline="middle">RIGHT</text>
    <text x="70.5" y="548.7" text-anchor="middle" dominant-baseline="middle">FRONT</text>
  </g>
</svg>
